<?xml version="1.0" encoding="iso-8859-1"?>
<!-- Uploaded to: SVG Repo, www.svgrepo.com, Generator: SVG Repo Mixer Tools -->
<svg fill="#000000" height="800px" width="800px" version="1.1" id="Layer_1" xmlns="http://www.w3.org/2000/svg" xmlns:xlink="http://www.w3.org/1999/xlink" 
	 viewBox="0 0 496 496" xml:space="preserve">
<g>
	<g>
		<g>
			<path d="M312,432h-56v-32h40c17.648,0,32-14.352,32-32s-14.352-32-32-32h-96c-8.824,0-16-7.176-16-16c0-8.824,7.176-16,16-16h56
				v-57.136c13.768-3.576,24-15.992,24-30.864c0-17.648-14.352-32-32-32s-32,14.352-32,32c0,14.872,10.232,27.288,24,30.864V288h-40
				c-17.648,0-32,14.352-32,32s14.352,32,32,32h96c8.824,0,16,7.176,16,16c0,8.824-7.176,16-16,16h-56v48h-56
				c-13.232,0-24,10.768-24,24v40h176v-40C336,442.768,325.232,432,312,432z M232,216c0-8.824,7.176-16,16-16
				c8.824,0,16,7.176,16,16c0,8.824-7.176,16-16,16C239.176,232,232,224.824,232,216z M320,480h-16v-16h-16v16h-16v-16h-16v16h-16
				v-16h-16v16h-16v-16h-16v16h-16v-24c0-4.416,3.584-8,8-8h128c4.416,0,8,3.584,8,8V480z"/>
			<path d="M328,190.856c-13.232,0-24,10.768-24,24s10.768,24,24,24s24-10.768,24-24S341.232,190.856,328,190.856z M328,222.856
				c-4.416,0-8-3.584-8-8c0-4.416,3.584-8,8-8c4.416,0,8,3.584,8,8C336,219.272,332.416,222.856,328,222.856z"/>
			<path d="M367.6,175.264c21.832,21.832,21.832,57.36,0,79.192l11.312,11.312c28.072-28.072,28.072-73.752,0-101.824L367.6,175.264
				z"/>
			<path d="M412.848,130.008l-11.312,11.312c40.552,40.552,40.552,106.528,0,147.088l11.312,11.312
				C459.64,252.928,459.64,176.8,412.848,130.008z"/>
			<path d="M435.488,107.384c59.256,59.264,59.256,155.696,0,214.96l11.312,11.312c65.496-65.504,65.496-172.088,0-237.584
				L435.488,107.384z"/>
			<path d="M320,0v16h80v16h-16v16h-48V32H160v16h-48V32H96V16h80V0H0v16h80v16H64v24c0,13.232,10.768,24,24,24
				c10.416,0,19.216-6.712,22.528-16H160v19.312L180.688,104h134.624L336,83.312V64h49.472c3.312,9.288,12.112,16,22.528,16
				c13.232,0,24-10.768,24-24V32h-16V16h80V0H320z M96,56c0,4.416-3.584,8-8,8s-8-3.584-8-8v-8h16V56z M320,76.688L308.688,88
				H187.312L176,76.688V48h16v16h16V48h16v16h16V48h16v16h16V48h16v16h16V48h16V76.688z M416,56c0,4.416-3.584,8-8,8
				c-4.416,0-8-3.584-8-8v-8h16V56z"/>
			<path d="M192,214.856c0-13.232-10.768-24-24-24s-24,10.768-24,24s10.768,24,24,24S192,228.096,192,214.856z M160,214.856
				c0-4.416,3.584-8,8-8s8,3.584,8,8c0,4.416-3.584,8-8,8S160,219.272,160,214.856z"/>
			<path d="M117.088,163.952c-28.072,28.072-28.072,73.752,0,101.824l11.312-11.312c-21.832-21.832-21.832-57.36,0-79.192
				L117.088,163.952z"/>
			<path d="M83.152,130.008c-46.792,46.792-46.792,122.92,0,169.712l11.312-11.312c-40.552-40.552-40.552-106.528,0-147.088
				L83.152,130.008z"/>
			<path d="M60.512,107.384L49.2,96.072c-65.496,65.504-65.496,172.088,0,237.584l11.312-11.312
				C1.256,263.08,1.256,166.648,60.512,107.384z"/>
		</g>
	</g>
</g>
</svg>