<svg xmlns="http://www.w3.org/2000/svg" xmlns:xlink="http://www.w3.org/1999/xlink" width="1024" zoomAndPan="magnify" viewBox="0 0 768 767.999994" height="1024" preserveAspectRatio="xMidYMid meet" version="1.0"><defs><g/><clipPath id="d671319084"><path d="M 3.378906 0 L 768 0 L 768 768 L 3.378906 768 Z M 3.378906 0 " clip-rule="nonzero"/></clipPath><clipPath id="0e7ff1e1d3"><path d="M 29.628906 0 L 741.75 0 C 756.246094 0 768 11.753906 768 26.25 L 768 741.75 C 768 756.246094 756.246094 768 741.75 768 L 29.628906 768 C 15.132812 768 3.378906 756.246094 3.378906 741.75 L 3.378906 26.25 C 3.378906 11.753906 15.132812 0 29.628906 0 Z M 29.628906 0 " clip-rule="nonzero"/></clipPath></defs><rect x="-76.8" width="921.6" fill="#ffffff" y="-76.799999" height="921.599993" fill-opacity="1"/><rect x="-76.8" width="921.6" fill="#ffffff" y="-76.799999" height="921.599993" fill-opacity="1"/><g clip-path="url(#d671319084)"><g clip-path="url(#0e7ff1e1d3)"><path fill="#000000" d="M 3.378906 0 L 768 0 L 768 767.605469 L 3.378906 767.605469 Z M 3.378906 0 " fill-opacity="1" fill-rule="nonzero"/></g></g><g fill="#ffffff" fill-opacity="1"><g transform="translate(320.03181, 716.634551)"><g><path d="M 409.40625 -505.6875 L 158.03125 -16.90625 L 234.46875 -16.90625 C 272.6875 -16.90625 306.617188 -29.644531 336.265625 -55.125 C 365.910156 -80.601562 383.675781 -121.03125 389.5625 -176.40625 L 406.46875 -176.40625 C 405 -159.738281 404.265625 -138.175781 404.265625 -111.71875 C 404.265625 -66.632812 405.976562 -29.394531 409.40625 0 C 373.144531 -1.46875 312.140625 -2.203125 226.390625 -2.203125 C 135.242188 -2.203125 69.335938 -1.46875 28.671875 0 L 28.671875 -14.703125 L 280.78125 -503.484375 L 201.390625 -503.484375 C 161.210938 -503.484375 128.257812 -491.96875 102.53125 -468.9375 C 76.8125 -445.90625 60.765625 -407.195312 54.390625 -352.8125 L 37.484375 -352.8125 C 38.953125 -367.019531 39.6875 -385.640625 39.6875 -408.671875 C 39.6875 -441.503906 37.972656 -478.742188 34.546875 -520.390625 C 66.890625 -518.921875 122.015625 -518.1875 199.921875 -518.1875 C 296.453125 -518.1875 366.28125 -518.921875 409.40625 -520.390625 Z M 409.40625 -505.6875 "/></g></g></g></svg>