<?xml version="1.0" standalone="no"?>
<!DOCTYPE svg PUBLIC "-//W3C//DTD SVG 20010904//EN"
 "http://www.w3.org/TR/2001/REC-SVG-20010904/DTD/svg10.dtd">
<svg version="1.0" xmlns="http://www.w3.org/2000/svg"
 width="275.000000pt" height="183.000000pt" viewBox="0 0 275.000000 183.000000"
 preserveAspectRatio="xMidYMid meet">

<g transform="translate(0.000000,183.000000) scale(0.100000,-0.100000)"
fill="#000000" stroke="none">
<path d="M1270 1700 c-20 -5 -57 -18 -82 -29 -56 -24 -975 -574 -1066 -639
-100 -70 -124 -129 -81 -198 32 -52 107 -101 624 -401 66 -39 210 -123 320
-188 110 -65 229 -129 265 -142 82 -29 158 -29 246 -2 110 34 124 42 799 454
88 54 189 115 225 137 221 134 257 212 148 315 -29 28 -182 120 -768 468 -91
54 -193 115 -227 137 -106 68 -175 91 -278 94 -49 2 -106 -1 -125 -6z m640
-411 c0 -5 -16 -34 -36 -64 l-37 -55 -276 0 -277 0 -17 -29 c-9 -16 -17 -32
-17 -35 0 -3 99 -6 220 -6 121 0 220 -3 220 -6 0 -3 -48 -75 -106 -161 l-106
-154 43 3 c48 3 43 -2 187 215 l67 102 248 1 c196 0 247 -3 241 -12 -4 -7 -70
-105 -147 -218 -76 -113 -155 -230 -175 -260 -27 -40 -51 -62 -87 -80 l-50
-25 -487 -3 c-269 -2 -488 0 -488 3 0 4 15 31 33 61 l32 53 282 1 281 0 21 34
c12 18 21 36 21 40 0 3 -101 6 -225 6 -124 0 -225 2 -225 5 0 3 46 72 103 153
57 81 107 153 111 160 5 9 -3 12 -32 12 l-40 0 -118 -170 -119 -170 -242 0
c-134 0 -243 2 -243 5 0 5 295 438 349 512 36 50 78 74 141 84 71 11 950 9
950 -2z"/>
</g>
</svg>
