<?xml version="1.0" standalone="no"?>
<!DOCTYPE svg PUBLIC "-//W3C//DTD SVG 20010904//EN"
 "http://www.w3.org/TR/2001/REC-SVG-20010904/DTD/svg10.dtd">
<svg version="1.0" xmlns="http://www.w3.org/2000/svg"
 width="900.000000pt" height="900.000000pt" viewBox="0 0 900.000000 900.000000"
 preserveAspectRatio="xMidYMid meet">

<g transform="translate(0.000000,900.000000) scale(0.100000,-0.100000)"
fill="#000000" stroke="none">
<path d="M4751 8807 c-17 -35 -31 -70 -31 -78 0 -8 -9 -25 -20 -39 -11 -14
-20 -35 -20 -46 0 -12 -8 -32 -19 -45 -10 -13 -21 -40 -25 -60 -4 -21 -13 -42
-21 -49 -7 -6 -17 -26 -21 -43 -3 -18 -15 -48 -25 -67 -29 -56 -67 -143 -74
-172 -4 -14 -17 -36 -30 -48 -24 -22 -27 -22 -116 -11 -51 7 -100 16 -110 22
-10 5 -56 14 -101 20 -46 5 -100 16 -120 24 -21 8 -75 19 -120 24 -46 5 -100
17 -120 25 -21 9 -63 16 -95 16 -35 0 -74 8 -99 19 -23 11 -77 22 -120 26 -44
4 -92 15 -109 23 -17 9 -67 19 -116 22 -67 5 -91 10 -114 28 -33 26 -53 28
-62 6 -6 -17 5 -28 150 -152 43 -37 133 -115 200 -173 67 -59 165 -141 217
-184 52 -42 99 -83 103 -91 14 -25 -2 -52 -36 -59 -18 -4 -41 -15 -52 -25 -11
-10 -31 -21 -45 -25 -14 -4 -36 -16 -49 -26 -13 -11 -30 -19 -38 -19 -8 0 -27
-8 -41 -19 -15 -10 -62 -35 -104 -55 -42 -20 -80 -40 -82 -45 -3 -5 -18 -12
-33 -16 -14 -3 -38 -15 -51 -26 -14 -10 -32 -19 -41 -19 -10 0 -32 -11 -51
-25 -19 -14 -40 -25 -48 -25 -8 0 -25 -9 -39 -20 -14 -11 -33 -20 -43 -20 -9
0 -28 -9 -41 -21 -13 -11 -36 -23 -51 -26 -15 -3 -35 -14 -44 -24 -9 -11 -25
-19 -34 -19 -10 0 -28 -8 -41 -19 -13 -10 -35 -22 -49 -26 -14 -4 -32 -13 -40
-20 -8 -7 -31 -20 -50 -29 -19 -8 -42 -19 -50 -24 -35 -20 -77 -42 -100 -53
-14 -6 -32 -15 -40 -20 -8 -5 -26 -14 -40 -20 -14 -6 -36 -17 -50 -24 -14 -8
-83 -44 -155 -80 -71 -36 -159 -82 -193 -101 -35 -19 -69 -34 -76 -34 -7 0
-20 -8 -30 -18 -9 -11 -34 -24 -56 -31 -22 -6 -40 -16 -40 -21 0 -5 -17 -14
-39 -20 -21 -5 -44 -17 -51 -25 -7 -8 -23 -15 -36 -15 -22 0 -54 -23 -54 -40
0 -5 -17 -10 -37 -12 -27 -2 -39 -8 -41 -20 -4 -23 44 -25 67 -4 10 9 57 18
122 24 59 6 119 17 135 25 16 8 68 17 116 20 48 3 100 13 116 21 17 9 74 20
128 25 55 6 117 17 139 25 22 8 61 15 86 16 25 0 79 9 120 19 41 10 101 22
134 26 55 6 104 16 237 46 48 11 68 7 68 -14 0 -12 -55 -63 -185 -171 -38 -32
-97 -84 -131 -115 -133 -123 -252 -231 -319 -286 -38 -33 -95 -82 -125 -110
-71 -67 -236 -214 -325 -290 -38 -33 -72 -62 -75 -65 -10 -12 -138 -127 -205
-185 -95 -82 -279 -248 -341 -307 -28 -27 -62 -56 -75 -65 -25 -18 -39 -33
-39 -45 0 -14 84 -8 125 8 22 9 70 22 106 29 37 6 77 20 90 29 13 9 42 16 64
16 22 0 57 9 77 20 20 11 62 22 93 25 35 3 66 12 82 25 17 13 41 20 72 20 27
0 58 8 76 18 17 10 53 21 81 25 28 3 68 14 90 25 21 11 61 23 87 26 65 8 70
-10 19 -71 -21 -27 -47 -61 -56 -78 -9 -16 -46 -70 -81 -120 -36 -49 -85 -119
-110 -155 -24 -36 -58 -84 -74 -107 -17 -24 -37 -55 -45 -70 -8 -16 -31 -46
-50 -67 -20 -22 -36 -45 -36 -52 0 -7 -19 -36 -43 -66 -23 -29 -59 -78 -80
-108 -44 -66 -141 -208 -186 -270 -17 -25 -60 -88 -95 -141 -36 -52 -72 -101
-80 -108 -9 -8 -16 -18 -16 -23 0 -10 -31 -55 -70 -104 -29 -35 -46 -60 -63
-91 -7 -12 -34 -50 -60 -84 -82 -107 -46 -111 80 -11 46 37 122 96 169 132 47
36 121 93 165 127 43 35 101 78 127 96 56 38 60 41 127 102 27 25 55 45 62 45
7 0 21 9 31 20 20 22 93 62 100 56 2 -2 -3 -15 -12 -28 -9 -13 -19 -47 -22
-74 -4 -27 -15 -63 -25 -80 -11 -17 -19 -48 -19 -68 0 -20 -11 -58 -25 -84
-14 -27 -25 -64 -25 -87 0 -24 -8 -50 -20 -65 -13 -16 -20 -41 -20 -71 0 -31
-7 -55 -20 -72 -12 -15 -23 -49 -27 -79 -3 -29 -14 -67 -24 -84 -11 -17 -19
-48 -19 -68 0 -20 -8 -53 -19 -74 -10 -20 -22 -59 -26 -86 -3 -27 -15 -65 -26
-85 -10 -20 -19 -49 -19 -66 0 -16 -9 -50 -20 -74 -11 -24 -20 -52 -20 -62 0
-18 -29 -117 -66 -229 -9 -25 -21 -70 -28 -100 -7 -30 -21 -80 -30 -110 -70
-220 -84 -280 -65 -280 16 0 51 21 69 40 8 10 87 82 175 161 88 79 165 148
170 155 6 6 46 42 90 79 44 38 105 91 135 119 65 59 296 275 317 294 7 8 44
39 81 70 64 54 120 104 182 162 124 117 258 238 320 290 63 52 237 210 314
285 12 11 73 65 136 120 63 55 153 137 200 181 47 45 128 119 180 165 52 45
97 85 100 88 3 3 23 21 45 40 22 19 99 89 171 157 131 124 201 184 213 184 14
0 31 -25 31 -46 0 -12 8 -32 18 -45 11 -13 22 -39 26 -58 3 -19 12 -42 20 -50
8 -9 19 -32 24 -51 15 -50 62 -161 78 -185 8 -11 14 -29 14 -40 0 -11 6 -29
14 -40 16 -24 63 -135 78 -185 5 -19 16 -42 24 -51 8 -8 17 -31 20 -50 4 -19
15 -45 26 -58 10 -13 18 -34 18 -46 0 -12 8 -33 19 -46 10 -13 22 -40 26 -59
4 -19 16 -46 26 -59 11 -13 19 -36 19 -52 0 -16 9 -37 21 -48 12 -11 23 -34
25 -52 2 -18 11 -40 20 -50 9 -10 20 -37 25 -61 6 -23 16 -50 23 -58 8 -8 17
-31 21 -50 4 -19 16 -46 26 -59 11 -13 19 -34 19 -46 0 -12 9 -34 20 -48 11
-14 20 -33 20 -43 0 -9 12 -42 26 -73 50 -106 62 -136 69 -161 4 -14 16 -39
26 -56 11 -17 19 -37 19 -43 0 -31 60 -134 119 -206 37 -44 89 -109 116 -144
28 -35 67 -82 89 -105 21 -22 55 -63 76 -91 20 -27 122 -154 226 -281 104
-127 196 -242 204 -255 8 -13 27 -35 41 -49 21 -20 80 -92 182 -220 65 -81
178 -218 226 -275 33 -38 72 -87 88 -108 15 -21 52 -66 80 -100 29 -34 83
-100 120 -146 140 -173 233 -287 260 -318 34 -38 58 -43 49 -11 -6 23 -15 136
-36 428 -6 80 -15 174 -20 210 -8 58 -32 400 -34 490 -1 29 3 36 22 38 13 2
35 -7 53 -22 17 -14 36 -26 44 -26 7 0 18 -7 25 -16 8 -8 27 -22 44 -30 69
-33 103 -53 115 -68 8 -9 21 -16 31 -16 10 0 23 -7 31 -16 12 -15 48 -36 118
-69 18 -9 42 -25 54 -36 11 -10 28 -19 37 -19 9 0 21 -5 28 -12 6 -6 15 -9 19
-5 4 4 1 13 -5 19 -7 7 -12 18 -12 26 0 8 -9 27 -21 43 -11 17 -35 55 -51 87
-17 31 -39 68 -49 81 -11 13 -19 30 -19 38 0 8 -11 28 -25 45 -14 16 -25 38
-25 48 0 9 -7 23 -16 30 -8 8 -22 27 -30 44 -33 69 -53 103 -68 115 -9 8 -16
23 -16 35 0 13 -11 33 -25 46 -14 13 -25 30 -25 37 0 8 -9 27 -20 43 -11 17
-29 43 -40 60 -11 16 -20 34 -20 41 0 6 -11 24 -25 41 -14 16 -25 38 -25 48 0
9 -6 23 -13 29 -8 6 -31 44 -52 83 -20 40 -44 81 -53 91 -13 15 -17 63 -23
285 -7 237 -18 476 -34 713 -4 61 -2 79 10 89 20 17 139 8 182 -14 17 -9 69
-19 115 -23 58 -4 90 -12 107 -25 18 -14 41 -18 98 -18 50 0 89 -6 121 -19 58
-24 189 -36 208 -20 8 6 14 21 14 34 0 12 9 48 20 80 24 70 29 265 7 265 -7 0
-33 -17 -59 -37 -26 -21 -63 -49 -83 -63 -19 -14 -61 -44 -92 -68 -57 -43 -78
-47 -113 -17 -8 7 -31 20 -50 29 -19 9 -73 37 -120 62 -47 26 -105 58 -130 71
-25 13 -81 44 -125 68 -44 25 -99 53 -121 64 -23 11 -45 24 -48 30 -4 6 -16
11 -26 11 -10 0 -32 11 -48 25 -17 14 -38 25 -48 25 -9 0 -26 8 -37 18 -19 17
-35 26 -170 94 -41 21 -80 44 -87 53 -7 8 -20 15 -29 15 -10 0 -26 7 -37 15
-10 8 -37 24 -59 35 -78 39 -180 95 -205 113 -13 9 -30 17 -38 17 -7 0 -26 10
-43 22 -21 16 -34 19 -43 13 -7 -6 -44 -31 -82 -57 -38 -26 -112 -77 -164
-113 -52 -36 -108 -74 -125 -85 -58 -37 -68 -45 -100 -72 -18 -16 -35 -28 -38
-28 -9 0 -96 -60 -102 -71 -13 -21 -38 -5 -104 63 -38 40 -107 114 -154 163
-82 86 -103 124 -77 140 6 4 17 21 25 38 14 30 36 71 57 107 5 8 18 33 29 55
12 22 34 63 49 90 16 28 37 66 46 85 9 19 22 42 29 50 7 8 16 26 20 39 4 12
18 39 31 58 13 19 35 59 49 88 14 30 29 56 34 60 5 3 12 19 16 35 4 17 15 35
26 40 11 6 19 21 19 35 0 13 8 31 18 41 16 16 69 111 108 194 9 19 25 45 35
59 10 13 19 31 19 41 0 9 9 25 20 35 11 10 20 22 20 28 0 5 7 24 16 43 18 38
13 64 -13 64 -10 0 -36 12 -58 25 -22 14 -48 25 -58 25 -11 0 -30 9 -44 20
-14 11 -36 20 -48 20 -12 0 -33 9 -47 19 -13 11 -42 24 -65 30 -22 6 -46 18
-53 26 -7 8 -25 15 -40 15 -15 0 -33 7 -40 15 -7 8 -31 20 -54 27 -22 6 -52
20 -65 30 -13 10 -34 18 -46 18 -12 0 -33 9 -47 19 -13 11 -38 23 -54 27 -16
4 -40 15 -53 26 -13 10 -36 18 -51 18 -15 0 -35 9 -45 20 -10 11 -24 20 -30
20 -7 0 -18 7 -25 15 -10 12 -6 22 23 57 19 24 41 55 48 70 8 14 30 50 49 80
19 29 40 60 45 69 6 9 23 36 40 60 16 24 35 55 42 69 7 14 23 39 36 56 21 30
59 89 102 160 80 130 108 174 121 185 8 6 14 16 14 22 0 5 17 35 38 65 20 30
41 62 47 71 41 68 77 121 85 126 6 3 10 17 10 31 0 34 26 41 54 15 12 -11 31
-21 43 -21 11 0 28 -9 37 -19 10 -10 32 -22 50 -25 18 -4 41 -15 51 -26 10
-11 28 -20 40 -20 12 0 30 -8 39 -19 9 -10 31 -21 47 -25 17 -3 42 -15 56 -26
14 -11 33 -20 43 -20 9 0 25 -8 34 -19 9 -10 31 -21 47 -25 17 -3 42 -15 56
-26 14 -11 33 -20 43 -20 10 0 29 -9 43 -20 14 -11 28 -20 33 -20 4 0 93 -43
198 -95 105 -52 196 -95 203 -95 6 0 16 -7 23 -14 6 -8 28 -20 48 -27 20 -6
44 -17 52 -24 8 -7 26 -16 40 -20 14 -4 37 -16 52 -26 14 -11 33 -19 41 -19 8
0 25 -8 38 -19 13 -10 35 -22 49 -26 14 -4 36 -16 49 -26 13 -11 31 -19 41
-19 10 0 28 -8 41 -19 13 -10 35 -22 49 -26 14 -4 35 -16 47 -27 12 -11 31
-18 45 -16 32 4 27 34 -14 93 -18 26 -39 59 -47 73 -8 15 -31 53 -52 84 -20
31 -40 65 -43 76 -4 11 -15 27 -26 37 -11 10 -20 22 -20 26 0 5 -20 40 -45 79
-25 39 -45 73 -45 76 0 3 -11 19 -25 36 -14 16 -25 35 -26 41 0 7 -16 32 -35
57 -19 25 -39 56 -45 70 -14 31 -17 37 -54 91 -16 24 -36 56 -45 70 -14 24
-39 64 -95 152 -11 17 -33 54 -49 82 -16 27 -39 63 -52 78 -13 16 -24 33 -24
38 0 5 -21 42 -46 82 -26 40 -58 90 -72 112 -14 22 -33 52 -44 67 -10 15 -18
30 -18 32 0 3 -17 31 -37 62 -21 32 -48 75 -60 97 -13 22 -34 54 -47 71 -13
17 -26 45 -30 63 -8 34 -29 49 -44 30 -6 -7 -12 -32 -15 -57 -2 -25 -12 -63
-20 -85 -10 -25 -16 -72 -17 -125 0 -108 -28 -205 -58 -205 -11 0 -48 27 -83
60 -35 33 -136 125 -224 204 -88 79 -239 220 -335 311 -96 92 -222 209 -280
259 -58 51 -117 106 -131 122 -14 16 -30 29 -36 29 -6 0 -25 -28 -42 -63z"/>
<path d="M6060 6343 c0 -17 24 -39 185 -171 88 -71 183 -151 210 -176 28 -25
53 -46 58 -46 4 0 21 -13 39 -30 17 -16 34 -30 39 -30 14 0 69 84 69 105 0 12
9 30 19 39 11 10 23 31 26 46 3 15 15 36 26 46 40 36 15 84 -44 84 -14 0 -44
7 -68 16 -24 8 -75 22 -114 29 -72 15 -145 32 -275 67 -92 24 -170 34 -170 21z"/>
<path d="M7400 5708 c0 -15 2 -18 118 -188 45 -68 82 -126 82 -129 0 -4 11
-18 25 -31 14 -13 25 -29 25 -35 0 -6 11 -26 24 -44 25 -33 25 -52 0 -81 -6
-8 -17 -33 -23 -55 -6 -22 -18 -49 -26 -59 -8 -11 -15 -27 -15 -35 0 -9 -11
-37 -25 -63 -14 -26 -25 -56 -25 -66 0 -11 -7 -25 -15 -32 -8 -6 -21 -36 -29
-65 -9 -29 -24 -62 -33 -73 -25 -29 -113 -72 -146 -72 -15 0 -44 -8 -65 -19
-20 -10 -56 -21 -80 -25 -24 -3 -53 -13 -65 -21 -12 -8 -42 -17 -67 -21 -25
-4 -58 -14 -75 -22 -30 -15 -119 -41 -227 -66 -31 -8 -61 -17 -67 -20 -21 -13
-11 -34 19 -38 37 -6 651 9 875 21 172 9 181 7 285 -54 52 -30 60 -22 53 53
-3 37 -14 87 -25 112 -10 24 -21 71 -25 105 -3 33 -12 69 -19 80 -18 25 -18
55 0 80 7 11 16 56 19 100 4 48 14 99 26 125 13 28 21 67 21 103 0 32 7 74 16
95 14 31 25 100 37 221 1 19 -5 28 -28 40 -16 8 -46 23 -66 33 -20 10 -47 18
-60 18 -13 0 -37 9 -54 20 -16 11 -39 20 -50 20 -11 0 -44 11 -73 25 -30 14
-61 25 -71 25 -9 0 -32 8 -51 19 -48 25 -120 37 -120 19z"/>
<path d="M4105 4032 c-87 -82 -248 -228 -330 -297 -90 -77 -137 -119 -194
-175 -25 -25 -120 -111 -211 -190 -91 -80 -199 -177 -240 -217 -41 -39 -109
-99 -150 -133 -80 -67 -105 -89 -275 -246 -61 -56 -144 -130 -185 -164 -41
-34 -131 -115 -200 -180 -69 -65 -181 -166 -250 -225 -69 -60 -152 -134 -185
-165 -98 -92 -149 -136 -172 -149 -29 -15 -30 -38 -2 -46 14 -5 33 2 58 19 21
15 51 26 70 26 18 0 45 8 59 19 15 10 48 21 74 25 25 4 52 13 58 21 7 8 28 17
49 20 20 4 56 15 81 25 25 10 59 22 75 25 17 4 44 13 60 21 17 7 53 20 80 28
73 21 144 45 195 66 25 11 59 22 77 25 17 3 48 15 69 26 21 10 50 19 64 19 14
0 39 9 55 20 17 11 41 20 55 20 14 0 48 12 75 25 28 14 63 25 78 25 16 0 40 9
54 20 14 11 41 20 60 20 18 0 46 9 61 19 15 10 47 22 71 25 24 4 55 16 69 26
14 11 40 20 59 20 20 0 46 9 60 20 37 29 52 25 108 -25 27 -25 53 -45 57 -45
11 0 71 -42 127 -89 27 -23 52 -41 56 -41 4 0 21 -11 39 -25 17 -14 40 -32 51
-40 80 -59 98 -73 130 -95 20 -14 49 -35 65 -47 15 -13 31 -23 35 -23 4 0 28
-17 54 -38 25 -21 66 -51 91 -67 25 -16 68 -47 95 -70 28 -22 70 -54 95 -70
25 -16 65 -45 90 -65 25 -20 65 -49 90 -65 25 -16 65 -45 90 -65 25 -20 58
-45 74 -55 16 -11 41 -29 57 -40 15 -11 56 -40 91 -64 34 -24 65 -47 68 -51 3
-3 28 -22 55 -40 52 -36 100 -71 125 -93 8 -6 37 -27 65 -44 27 -18 70 -50 94
-70 24 -21 51 -41 60 -45 9 -4 34 -21 56 -37 22 -17 65 -47 95 -68 31 -21 78
-55 105 -76 111 -84 223 -165 246 -177 13 -7 53 -36 89 -65 36 -29 76 -58 90
-65 14 -7 32 -19 40 -26 29 -26 86 -70 127 -99 24 -17 60 -42 80 -58 21 -15
63 -44 93 -64 30 -21 80 -56 110 -80 30 -23 67 -51 82 -63 27 -20 58 -27 58
-12 0 5 -30 40 -66 78 -36 38 -111 123 -167 189 -56 65 -108 127 -117 136 -50
53 -102 111 -145 164 -28 33 -111 127 -185 210 -74 82 -155 175 -180 205 -38
46 -125 145 -264 300 -17 19 -68 78 -112 130 -44 52 -103 119 -131 148 -28 29
-71 75 -95 104 -134 159 -186 219 -232 268 -29 30 -87 98 -130 150 -43 52
-106 124 -140 160 -73 77 -156 175 -179 210 -8 14 -19 48 -22 75 -4 28 -12 58
-17 69 -6 10 -18 57 -29 105 -23 108 -46 199 -69 276 -10 33 -21 81 -24 108
-3 26 -12 57 -20 70 -9 12 -18 49 -22 82 -4 33 -15 79 -25 102 -11 23 -19 59
-19 80 0 21 -9 57 -20 78 -11 22 -23 67 -27 100 -3 33 -15 74 -25 90 -11 19
-18 49 -18 81 0 41 -6 59 -30 92 -17 23 -31 42 -33 42 -1 0 -29 -26 -62 -58z"/>
</g>
</svg>
