<svg xmlns="http://www.w3.org/2000/svg" height="129.37" viewBox="0 0 250 129.37221" width="250"><g transform="matrix(1.25 0 0 -1.25 15.12 842.36)"><path d="m114.41 608.22c-1.0808-1.6235-3.4399-5.1729-3.8684-5.9847-0.43326-0.81176-1.2593-2.0806 1.1117-2.3448 2.3734-0.26662 5.5657-0.69749 6.8393-0.45706 1.4283 0.269 2.4662 0.87842 1.4854 2.6805-0.72368 1.3212-3.4304 5.4681-3.8184 5.9847-0.39278 0.51896-0.98554 1.2712-1.7497 0.12141m-18.552-1.7878c0.29043-1.6021 1.914-1.7664 3.5018-1.7783 2.0806 2.709 3.1614 5.1777 3.7279 6.844-0.30947 0.68559-0.88794 2.521-1.2474 3.478-0.36422 0.9546-1.3998 0.53324-2.4615 0.34994-7.4058-1.2926-15.185 4.0255-21.551 5.0824-2.3186 0.38088-1.8259-0.97602-1.5259-2.471 0.29757-1.495 2.2425-8.777 3.8231-12.529 1.2617-3.0019 3.8565-4.0517 6.9012-4.5825 3.7541-0.6594 4.6492-3.0733 6.575-4.0326 0.78558 0.52848 1.7497 1.614 2.0663 2.4044-0.38327 1.2426-1.5283 1.2998-2.9423 1.7925-2.4639 0.85461-3.0495 1.8925-4.1612 2.6876-3.3994 2.4448-2.6091 4.3683-0.75939 4.2159 1.8521-0.15474 5.2396-0.14522 6.3227 0.019 0.88318 0.13331 1.4378 0.12141 1.7306-1.4807m90.653 22.815c0.69988-1.0022 0.4285-1.1903 0.49039-2.2829 0.0809-1.4783-1.5688-1.7283-2.6257-3.9588-0.58085-1.226-1.0094-1.9068-2.3686-2.3067-1.3569-0.39993-4.7777 0.43088-6.1846 1.9497-1.4117 1.5188-0.32375 3.4637-1.0022 4.6825-1.5545 2.7971-4.285 3.8493-5.4538 4.8991-1.1712 1.0474-2.4948 1.4307-4.1564 1.8473-4.6016 1.1546-5.2062 3.5898-6.8583 5.9132-1.6521 2.321-2.6495 1.9116-3.228 1.7735-7.1654-1.7616-15.65-5.0134-19.561-7.4154-6.6108-4.0612-9.3626-8.708-10.662-16 3.2232-5.2372 1.8425-6.8631 1.7402-8.9484-0.28329-5.5514 1.8878-8.3247 2.3829-9.7174 0.5023-1.3926 0.45945-2.0473-0.24043-2.8257-0.70226-0.78082-1.6307-2.2686-2.7519-3.3042-1.1141-1.0332-2.1925-0.55704-3.2732-0.2809-5.68 1.4498-10.293 2.052-15.859 2.2901-3.7541 0.15949-7.1868-3.5422-8.1343-4.5778-0.95221-1.0332 0.46897-1.6807 1.2426-2.1925 2.1639-1.4259 3.0566-3.1685 4.911-3.9945 1.8568-0.82604 3.528-1.3664 4.4706-3.2923 0.67607-1.3878-0.21425-2.5543-0.89984-3.1209 0.89508-0.51182 2.9447-2.1258 3.8946-2.9923 0.94746-0.86413 1.1498-2.6638-0.15949-3.078-1.3069-0.41422-3.5898-1.0403-4.9182-1.2022-1.6307-0.19759-1.8044 0.88794-2.133 1.3617-1.4474 2.0877-4.5349 5.3205-7.2321 5.9752-4.8158 1.1712-5.0586 3.7089-8.1771 6.5084-1.8068 1.6211-2.0663 0.26662-4.2897-1.5188-4.2778-3.4399-4.4468-0.68322-8.2486-3.028-6.2941-3.8826-6.5131-1.4688-6.1823-0.45706 0.32375 1.0117 1.1141 2.5638 2.6067 5.6395 1.6878 3.4803 4.3016 0.50467 6.5036 2.4758 1.6973 1.5188 2.9638 3.6232 2.9638 3.6232-3.0876 3.2375-3.8588 1.595-9.903 1.8663-5.6181 0.25471-5.899 2.202-7.1845 6.1299-3.3161 10.129-8.9103 12.514-16.833 17.749-6.6298 4.385-3.7874 6.5941-7.7915 10.462-2.052 1.983-2.0782 3.247-2.5019 5.3967-0.41897 2.1472-0.75939 2.1449-2.6757 2.4305-1.9211 0.28566-9.315 1.0546-13.122 4.3635-4.0993 3.5637-4.1802 2.1377-8.996 1.9068-15.645-0.74749-25.212 10.182-25.496 15.864-0.15474 3.0947 1.4497 3.7755 3.0757 2.2425 1.6259-1.5331 6.4013-5.092 13.638-5.8728 9.7269-1.0451 13.207 1.5545 16.204 1.0117 5.8942-1.0593 5.6157-3.6636 8.9199-8.7009 1.9092-2.909 13.538 2.0972 15.143 2.9185 7.3678 3.7636 15.638 8.7199 29.407 6.5727 15.964-2.4877 27.85 0.36898 33.916 2.5424 4.6706 1.6711 2.3401 2.0354 1.2546 2.8352-1.0808 0.79748-4.4326 3.2256-3.7374 4.6778 1.0332 2.1639 13.017-4.3326 14.883-2.0258 0.87841 1.0879-8.2128 5.5895-6.0585 8.22 2.1401 2.6138 5.0372-2.7471 12.419-4.8039 4.2016-1.1712 5.6657-1.6878 6.2132-1.007 1.0998 1.3712-1.0784 2.3615 0.0238 3.347 1.4616 1.3045 5.4966-1.6902 9.0103-3.2542 3.7089-1.6497-0.23806 4.4373 6.2513-0.0167 4.8111-3.2947 8.07-3.7303 11.636-3.766 2.3258-0.0238 1.4736 0.75225 1.7973 2.4353 0.32376 1.6854 1.2855 6.5608 2.4924 7.3558 2.4067 1.5735 2.79-3.8112 3.5327-7.7415 0.74035-3.9255 2.4091-6.706 6.7464-10.572 3.3399-2.9733 2.9185-4.9991 3.8017-7.9391 1.5069-5.0134 2.9685-10.855 7.3273-17.073" fill="#cc0035"/></g></svg>
