<?xml version="1.0" standalone="no"?>
<!DOCTYPE svg PUBLIC "-//W3C//DTD SVG 20010904//EN"
 "http://www.w3.org/TR/2001/REC-SVG-20010904/DTD/svg10.dtd">
<svg version="1.0" xmlns="http://www.w3.org/2000/svg"
 width="147.000000pt" height="79.000000pt" viewBox="0 0 147.000000 79.000000"
 preserveAspectRatio="xMidYMid meet">

<g transform="translate(0.000000,79.000000) scale(0.100000,-0.100000)"
fill="#000000" stroke="none">
<path d="M293 755 c-23 -14 -50 -40 -61 -58 -16 -25 -178 -408 -223 -525 l-9
-22 263 2 c232 3 262 5 265 19 2 10 -42 61 -112 130 -106 105 -115 118 -121
161 -8 56 6 106 43 150 49 58 45 58 586 58 l495 0 16 30 c8 16 20 41 25 55
l10 25 -568 0 -567 0 -42 -25z"/>
<path d="M452 518 c-7 -7 -12 -18 -12 -26 0 -8 45 -57 101 -109 55 -53 107
-110 116 -126 34 -67 13 -161 -50 -219 l-29 -28 104 0 104 0 102 247 c56 137
102 254 102 261 0 17 -520 18 -538 0z"/>
<path d="M1152 518 c-9 -11 -212 -494 -212 -504 0 -2 30 -4 68 -4 74 0 130 24
164 70 18 24 188 423 188 441 0 14 -196 11 -208 -3z"/>
</g>
</svg>
